<svg width="136.000000" height="32.000000" viewBox="0 0 136 32" fill="none" xmlns="http://www.w3.org/2000/svg" xmlns:xlink="http://www.w3.org/1999/xlink">
	<desc>
			Created with Pixso.
	</desc>
	<defs/>
	<path id="Vector" d="M49.6 11.38C49.25 10.75 48.75 10.26 48.09 9.93C47.46 9.59 46.7 9.41 45.82 9.41C44.31 9.41 43.1 9.92 42.18 10.92C41.27 11.9 40.82 13.23 40.82 14.89C40.82 16.66 41.29 18.04 42.24 19.05C43.21 20.03 44.53 20.53 46.21 20.53C47.36 20.53 48.32 20.23 49.11 19.65C49.91 19.07 50.49 18.23 50.86 17.13L44.92 17.13L44.92 13.68L55.1 13.68L55.1 18.03C54.75 19.2 54.16 20.29 53.32 21.29C52.5 22.29 51.45 23.11 50.17 23.73C48.9 24.35 47.46 24.66 45.85 24.66C43.95 24.66 42.26 24.25 40.76 23.43C39.28 22.59 38.12 21.43 37.28 19.95C36.46 18.47 36.05 16.79 36.05 14.89C36.05 12.99 36.46 11.3 37.28 9.82C38.12 8.33 39.28 7.17 40.76 6.35C42.24 5.51 43.93 5.09 45.82 5.09C48.12 5.09 50.06 5.65 51.63 6.76C53.21 7.87 54.26 9.41 54.77 11.38L49.6 11.38ZM62.37 11.8C62.92 10.96 63.6 10.3 64.43 9.82C65.25 9.33 66.16 9.09 67.16 9.09L67.16 14.04L65.88 14.04C64.71 14.04 63.83 14.29 63.25 14.81C62.66 15.3 62.37 16.17 62.37 17.43L62.37 24.52L57.69 24.52L57.69 9.25L62.37 9.25L62.37 11.8ZM76.35 24.74C74.85 24.74 73.5 24.42 72.3 23.78C71.11 23.14 70.17 22.23 69.48 21.05C68.81 19.86 68.47 18.47 68.47 16.89C68.47 15.32 68.81 13.94 69.51 12.75C70.2 11.55 71.15 10.63 72.35 9.99C73.56 9.35 74.91 9.03 76.4 9.03C77.9 9.03 79.25 9.35 80.45 9.99C81.66 10.63 82.61 11.55 83.3 12.75C83.99 13.94 84.34 15.32 84.34 16.89C84.34 18.45 83.98 19.84 83.27 21.05C82.58 22.23 81.62 23.14 80.4 23.78C79.2 24.42 77.85 24.74 76.35 24.74ZM76.35 20.69C77.24 20.69 78 20.36 78.62 19.7C79.26 19.05 79.58 18.11 79.58 16.89C79.58 15.66 79.27 14.72 78.65 14.07C78.05 13.41 77.3 13.08 76.4 13.08C75.49 13.08 74.74 13.41 74.13 14.07C73.53 14.71 73.23 15.64 73.23 16.89C73.23 18.11 73.52 19.05 74.11 19.7C74.71 20.36 75.46 20.69 76.35 20.69ZM108.74 9.25L104.61 24.52L99.44 24.52L97.03 14.61L94.54 24.52L89.4 24.52L85.24 9.25L89.92 9.25L92.08 20.17L94.65 9.25L99.6 9.25L102.2 20.11L104.34 9.25L108.74 9.25ZM118.19 13.14L115.67 13.14L115.67 24.52L110.99 24.52L110.99 13.14L109.3 13.14L109.3 9.25L110.99 9.25L110.99 8.81C110.99 6.93 111.53 5.51 112.61 4.54C113.69 3.56 115.26 3.07 117.34 3.07C117.69 3.07 117.95 3.07 118.11 3.09L118.11 7.06C117.22 7.01 116.59 7.13 116.22 7.44C115.86 7.75 115.67 8.31 115.67 9.11L115.67 9.25L118.19 9.25L118.19 13.14ZM135.99 9.25L126.41 31.77L121.38 31.77L124.88 24L118.67 9.25L123.89 9.25L127.42 18.8L130.93 9.25L135.99 9.25Z" fill="#FFFFFF" fill-opacity="1.000000" fill-rule="nonzero"/>
	<path id="Vector" d="M15.15 6.63C15.15 2.56 18.45 -0.74 22.52 -0.74L29.89 -0.74L29.89 6.63C29.89 10.7 26.59 14 22.52 14C18.45 14 15.15 10.7 15.15 6.63Z" fill="#FF6D35" fill-opacity="1.000000" fill-rule="nonzero"/>
	<path id="Vector" d="M22.52 31.67C18.45 31.67 15.15 28.37 15.15 24.3L15.15 16.94L22.52 16.94C26.59 16.94 29.89 20.23 29.89 24.3C29.89 28.37 26.59 31.67 22.52 31.67Z" fill="#5CC97B" fill-opacity="1.000000" fill-rule="nonzero"/>
	<path id="Vector" d="M12.83 14.65C12.83 6.47 6.7 -0.16 -0.85 -0.16L-0.85 24.02C-0.85 28.1 2.21 31.42 5.99 31.42C9.77 31.42 12.83 28.1 12.83 24.02L12.83 14.65Z" fill="#3D96F4" fill-opacity="1.000000" fill-rule="nonzero"/>
</svg>
